<?xml version="1.0" encoding="utf-8"?>
<!-- Generator: Adobe Illustrator 24.0.2, SVG Export Plug-In . SVG Version: 6.00 Build 0)  -->
<svg version="1.1" id="图层_1" xmlns="http://www.w3.org/2000/svg" xmlns:xlink="http://www.w3.org/1999/xlink" x="0px" y="0px"
	 viewBox="0 0 200 200" style="enable-background:new 0 0 200 200;" xml:space="preserve">
<style type="text/css">
	.st0{fill:#FFFFFF;}
</style>
<path class="st0" d="M100,12.5c-48.3,0-87.5,39.3-87.5,87.5s39.3,87.5,87.5,87.5s87.5-39.3,87.5-87.5S148.3,12.5,100,12.5z M100,175
	c-41.4,0-75-33.6-75-75s33.6-75,75-75s75,33.6,75,75S141.4,175,100,175z"/>
<g>
	<g>
		<path class="st0" d="M127.1,146.2c0,0.4,0.3,0.7,0.7,0.7h6c0.7,0,1-0.9,0.5-1.3c-0.6-0.5-1.3-1.1-1.9-1.7c-2.1-2.1-3.7-4.3-4.5-6
			c-0.1-0.3-0.1-0.6,0.2-0.8l2.2-2.2c0.2-0.2,0.6-0.3,0.8-0.2c1.8,0.8,3.9,2.4,6,4.5c2.1,2.1,3.7,4.3,4.5,6c0.1,0.3,0.1,0.6-0.2,0.8
			l-0.9,0.9h0.7c0.4,0,0.7-0.3,0.7-0.7v-27.9c0-0.4-0.3-0.7-0.7-0.7h-5.5c-0.7,0-1,0.9-0.5,1.3c0.6,0.5,1.3,1.1,1.9,1.7
			c2.1,2.1,3.7,4.3,4.5,6c0.1,0.3,0.1,0.6-0.2,0.8l-2.2,2.2c-0.2,0.2-0.6,0.3-0.8,0.2c-1.8-0.8-3.9-2.4-6-4.5
			c-2.1-2.1-3.7-4.3-4.5-6c-0.1-0.3-0.1-0.6,0.2-0.8l0.9-0.9h-1.1c-0.4,0-0.7,0.3-0.7,0.7V146.2z M128,128.6
			c-0.1-0.3-0.1-0.6,0.2-0.8l2.2-2.2c0.2-0.2,0.6-0.3,0.8-0.2c1.8,0.8,3.9,2.4,6,4.5c2.1,2.1,3.7,4.3,4.5,6c0.1,0.3,0.1,0.6-0.2,0.8
			l-2.2,2.2c-0.2,0.2-0.6,0.3-0.8,0.2c-1.8-0.8-3.9-2.4-6-4.5C130.4,132.5,128.8,130.4,128,128.6z"/>
		<g id="M4_13_">
			<path class="st0" d="M141.7,127.3l-2.5,2.5c-0.1,0.1-0.3,0.2-0.4,0.1c-1.8-0.8-4.1-2.4-6.2-4.6c-2.2-2.2-3.8-4.4-4.6-6.2
				c-0.1-0.2,0-0.3,0.1-0.4l0.9-0.9c0.1-0.1,0.2-0.1,0.3-0.1h4.3c0.1,0,0.2,0,0.2,0.1c1.1,0.8,2.3,1.8,3.5,3
				c2.2,2.2,3.8,4.4,4.6,6.2C141.8,127,141.8,127.2,141.7,127.3z"/>
			<path class="st0" d="M128,137.2l2.5-2.5c0.1-0.1,0.3-0.2,0.4-0.1c1.8,0.8,4.1,2.4,6.2,4.6c2.2,2.2,3.8,4.4,4.6,6.2
				c0.1,0.2,0,0.3-0.1,0.4l-0.9,0.9c-0.1,0.1-0.2,0.1-0.3,0.1l-4.3,0c-0.1,0-0.2,0-0.2-0.1c-1.1-0.8-2.3-1.8-3.5-3
				c-2.2-2.2-3.8-4.4-4.6-6.2C127.8,137.5,127.9,137.4,128,137.2z"/>
			<path class="st0" d="M137.2,129.9c2.2,2.2,3.8,4.4,4.6,6.2c0.1,0.2,0,0.3-0.1,0.5l-2.5,2.5c-0.1,0.1-0.3,0.2-0.5,0.1
				c-1.8-0.8-4.1-2.4-6.2-4.6c-2.2-2.2-3.8-4.4-4.6-6.2c-0.1-0.2,0-0.3,0.1-0.5l2.5-2.5c0.1-0.1,0.3-0.2,0.5-0.1
				C132.7,126.2,135,127.8,137.2,129.9z"/>
		</g>
		<path class="st0" d="M72.9,118.3c0-0.4-0.3-0.7-0.7-0.7H71l0.9,0.9c0.2,0.2,0.3,0.6,0.2,0.8c-0.8,1.8-2.4,3.9-4.5,6
			c-2.1,2.1-4.3,3.7-6,4.5c-0.3,0.1-0.6,0.1-0.8-0.2l-2.2-2.2c-0.2-0.2-0.3-0.6-0.2-0.8c0.8-1.8,2.4-3.9,4.5-6
			c0.6-0.6,1.2-1.2,1.9-1.7c0.5-0.4,0.2-1.3-0.5-1.3h-5.5c-0.4,0-0.7,0.3-0.7,0.7v27.9c0,0.4,0.3,0.7,0.7,0.7h0.7l-0.9-0.9
			c-0.2-0.2-0.3-0.6-0.2-0.8c0.8-1.8,2.4-3.9,4.5-6c2.1-2.1,4.3-3.7,6-4.5c0.3-0.1,0.6-0.1,0.8,0.2l2.2,2.2c0.2,0.2,0.3,0.6,0.2,0.8
			c-0.8,1.8-2.4,3.9-4.5,6c-0.6,0.6-1.2,1.2-1.9,1.7c-0.5,0.4-0.2,1.3,0.5,1.3h6c0.4,0,0.7-0.3,0.7-0.7V118.3z M67.6,134.6
			c-2.1,2.1-4.3,3.7-6,4.5c-0.3,0.1-0.6,0.1-0.8-0.2l-2.2-2.2c-0.2-0.2-0.3-0.6-0.2-0.8c0.8-1.8,2.4-3.9,4.5-6
			c2.1-2.1,4.3-3.7,6-4.5c0.3-0.1,0.6-0.1,0.8,0.2l2.2,2.2c0.2,0.2,0.3,0.6,0.2,0.8C71.2,130.4,69.6,132.5,67.6,134.6z"/>
		<g id="M3_13_">
			<path class="st0" d="M58.3,127.3l2.5,2.5c0.1,0.1,0.3,0.2,0.4,0.1c1.8-0.8,4.1-2.4,6.2-4.6c2.2-2.2,3.8-4.4,4.6-6.2
				c0.1-0.2,0-0.3-0.1-0.4l-0.9-0.9c-0.1-0.1-0.2-0.1-0.3-0.1h-4.3c-0.1,0-0.2,0-0.2,0.1c-1.1,0.8-2.3,1.8-3.5,3
				c-2.2,2.2-3.8,4.4-4.6,6.2C58.2,127,58.2,127.2,58.3,127.3z"/>
			<path class="st0" d="M72,137.2l-2.5-2.5c-0.1-0.1-0.3-0.2-0.4-0.1c-1.8,0.8-4.1,2.4-6.2,4.6c-2.2,2.2-3.8,4.4-4.6,6.2
				c-0.1,0.2,0,0.3,0.1,0.4l0.9,0.9c0.1,0.1,0.2,0.1,0.3,0.1l4.3,0c0.1,0,0.2,0,0.2-0.1c1.1-0.8,2.3-1.8,3.5-3
				c2.2-2.2,3.8-4.4,4.6-6.2C72.2,137.5,72.1,137.4,72,137.2z"/>
			<path class="st0" d="M62.8,129.9c-2.2,2.2-3.8,4.4-4.6,6.2c-0.1,0.2,0,0.3,0.1,0.5l2.5,2.5c0.1,0.1,0.3,0.2,0.5,0.1
				c1.8-0.8,4.1-2.4,6.2-4.6c2.2-2.2,3.8-4.4,4.6-6.2c0.1-0.2,0-0.3-0.1-0.5l-2.5-2.5c-0.1-0.1-0.3-0.2-0.5-0.1
				C67.3,126.2,65,127.8,62.8,129.9z"/>
		</g>
		<path class="st0" d="M142,53.8c0-0.4-0.3-0.7-0.7-0.7h-1.1l0.9,0.9c0.2,0.2,0.3,0.6,0.2,0.8c-0.8,1.8-2.4,3.9-4.5,6
			c-2.1,2.1-4.3,3.7-6,4.5c-0.3,0.1-0.6,0.1-0.8-0.2l-2.2-2.2c-0.2-0.2-0.3-0.6-0.2-0.8c0.8-1.8,2.4-3.9,4.5-6
			c0.6-0.6,1.2-1.2,1.9-1.7c0.5-0.4,0.2-1.3-0.5-1.3h-5.5c-0.4,0-0.7,0.3-0.7,0.7v27.9c0,0.4,0.3,0.7,0.7,0.7h0.7l-0.9-0.9
			c-0.2-0.2-0.3-0.6-0.2-0.8c0.8-1.8,2.4-3.9,4.5-6c2.1-2.1,4.3-3.7,6-4.5c0.3-0.1,0.6-0.1,0.8,0.2l2.2,2.2c0.2,0.2,0.3,0.6,0.2,0.8
			c-0.8,1.8-2.4,3.9-4.5,6c-0.6,0.6-1.2,1.2-1.9,1.7c-0.5,0.4-0.2,1.3,0.5,1.3h6c0.4,0,0.7-0.3,0.7-0.7V53.8z M136.7,70.1
			c-2.1,2.1-4.3,3.7-6,4.5c-0.3,0.1-0.6,0.1-0.8-0.2l-2.2-2.2c-0.2-0.2-0.3-0.6-0.2-0.8c0.8-1.8,2.4-3.9,4.5-6
			c2.1-2.1,4.3-3.7,6-4.5c0.3-0.1,0.6-0.1,0.8,0.2l2.2,2.2c0.2,0.2,0.3,0.6,0.2,0.8C140.3,65.8,138.8,68,136.7,70.1z"/>
		<g id="M2_13_">
			<path class="st0" d="M127.5,62.8l2.5,2.5c0.1,0.1,0.3,0.2,0.4,0.1c1.8-0.8,4.1-2.4,6.2-4.6c2.2-2.2,3.8-4.4,4.6-6.2
				c0.1-0.2,0-0.3-0.1-0.4l-0.9-0.9c-0.1-0.1-0.2-0.1-0.3-0.1h-4.3c-0.1,0-0.2,0-0.2,0.1c-1.1,0.8-2.3,1.8-3.5,3
				c-2.2,2.2-3.8,4.4-4.6,6.2C127.3,62.5,127.3,62.6,127.5,62.8z"/>
			<path class="st0" d="M141.1,72.7l-2.5-2.5c-0.1-0.1-0.3-0.2-0.4-0.1c-1.8,0.8-4.1,2.4-6.2,4.6c-2.2,2.2-3.8,4.4-4.6,6.2
				c-0.1,0.2,0,0.3,0.1,0.4l0.9,0.9c0.1,0.1,0.2,0.1,0.3,0.1l4.3,0c0.1,0,0.2,0,0.2-0.1c1.1-0.8,2.3-1.8,3.5-3
				c2.2-2.2,3.8-4.4,4.6-6.2C141.3,73,141.2,72.8,141.1,72.7z"/>
			<path class="st0" d="M131.9,65.4c-2.2,2.2-3.8,4.4-4.6,6.2c-0.1,0.2,0,0.3,0.1,0.5l2.5,2.5c0.1,0.1,0.3,0.2,0.5,0.1
				c1.8-0.8,4.1-2.4,6.2-4.6c2.2-2.2,3.8-4.4,4.6-6.2c0.1-0.2,0-0.3-0.1-0.5l-2.5-2.5c-0.1-0.1-0.3-0.2-0.5-0.1
				C136.4,61.6,134.1,63.2,131.9,65.4z"/>
		</g>
		<path class="st0" d="M58,81.7c0,0.4,0.3,0.7,0.7,0.7h6c0.7,0,1-0.9,0.5-1.3c-0.6-0.5-1.3-1.1-1.9-1.7c-2.1-2.1-3.7-4.3-4.5-6
			c-0.1-0.3-0.1-0.6,0.2-0.8l2.2-2.2c0.2-0.2,0.6-0.3,0.8-0.2c1.8,0.8,3.9,2.4,6,4.5c2.1,2.1,3.7,4.3,4.5,6c0.1,0.3,0.1,0.6-0.2,0.8
			l-0.9,0.9h0.7c0.4,0,0.7-0.3,0.7-0.7V53.8c0-0.4-0.3-0.7-0.7-0.7h-5.5c-0.7,0-1,0.9-0.5,1.3c0.6,0.5,1.3,1.1,1.9,1.7
			c2.1,2.1,3.7,4.3,4.5,6c0.1,0.3,0.1,0.6-0.2,0.8l-2.2,2.2c-0.2,0.2-0.6,0.3-0.8,0.2c-1.8-0.8-3.9-2.4-6-4.5
			c-2.1-2.1-3.7-4.3-4.5-6c-0.1-0.3-0.1-0.6,0.2-0.8l0.9-0.9h-1.1c-0.4,0-0.7,0.3-0.7,0.7V81.7z M58.8,64c-0.1-0.3-0.1-0.6,0.2-0.8
			l2.2-2.2c0.2-0.2,0.6-0.3,0.8-0.2c1.8,0.8,3.9,2.4,6,4.5c2.1,2.1,3.7,4.3,4.5,6c0.1,0.3,0.1,0.6-0.2,0.8l-2.2,2.2
			c-0.2,0.2-0.6,0.3-0.8,0.2c-1.8-0.8-3.9-2.4-6-4.5C61.2,68,59.7,65.8,58.8,64z"/>
		<g id="M1_1_">
			<path class="st0" d="M72.5,62.8l-2.5,2.5c-0.1,0.1-0.3,0.2-0.4,0.1c-1.8-0.8-4.1-2.4-6.2-4.6c-2.2-2.2-3.8-4.4-4.6-6.2
				c-0.1-0.2,0-0.3,0.1-0.4l0.9-0.9c0.1-0.1,0.2-0.1,0.3-0.1h4.3c0.1,0,0.2,0,0.2,0.1c1.1,0.8,2.3,1.8,3.5,3
				c2.2,2.2,3.8,4.4,4.6,6.2C72.7,62.5,72.7,62.6,72.5,62.8z"/>
			<path class="st0" d="M58.9,72.7l2.5-2.5c0.1-0.1,0.3-0.2,0.4-0.1c1.8,0.8,4.1,2.4,6.2,4.6c2.2,2.2,3.8,4.4,4.6,6.2
				c0.1,0.2,0,0.3-0.1,0.4l-0.9,0.9c-0.1,0.1-0.2,0.1-0.3,0.1l-4.3,0c-0.1,0-0.2,0-0.2-0.1c-1.1-0.8-2.3-1.8-3.5-3
				c-2.2-2.2-3.8-4.4-4.6-6.2C58.7,73,58.8,72.8,58.9,72.7z"/>
			<path class="st0" d="M68.1,65.4c2.2,2.2,3.8,4.4,4.6,6.2c0.1,0.2,0,0.3-0.1,0.5l-2.5,2.5c-0.1,0.1-0.3,0.2-0.5,0.1
				c-1.8-0.8-4.1-2.4-6.2-4.6c-2.2-2.2-3.8-4.4-4.6-6.2c-0.1-0.2,0-0.3,0.1-0.5l2.5-2.5c0.1-0.1,0.3-0.2,0.5-0.1
				C63.6,61.6,65.9,63.2,68.1,65.4z"/>
		</g>
	</g>
	<path class="st0" d="M126.5,87.7l-0.1-0.3l-0.1-0.3l-0.2-0.3l-0.2-0.2l-0.2-0.2l-0.2-0.2l-0.3-0.1l-0.3-0.1l-0.3,0h-6l-0.2,0
		l-0.2-0.1l-0.2-0.1l-0.2-0.2l-0.1-0.2l-0.1-0.2l-0.1-0.2l0-0.3v-27l0-0.3l-0.1-0.3l-0.1-0.2l-0.2-0.2l-0.2-0.2l-0.2-0.1l-0.2-0.1
		l-0.2,0H83.7l-0.2,0l-0.2,0.1l-0.2,0.1l-0.2,0.2l-0.2,0.2l-0.1,0.2l-0.1,0.3l0,0.3v27l0,0.3l-0.1,0.2l-0.1,0.2l-0.1,0.2L82,85.8
		l-0.2,0.1L81.6,86l-0.2,0h-6l-0.3,0l-0.3,0.1l-0.3,0.1l-0.2,0.2L74,86.6l-0.2,0.2l-0.2,0.3l-0.1,0.3l-0.1,0.3l0,0.3v24l0,0.3
		l0.1,0.3l0.1,0.3l0.2,0.3l0.2,0.2l0.2,0.2l0.2,0.2l0.3,0.1l0.3,0.1l0.3,0h6l0.2,0l0.2,0.1l0.2,0.1l0.2,0.2l0.1,0.2l0.1,0.2l0.1,0.2
		l0,0.3v27l0,0.3l0.1,0.3l0.1,0.2l0.2,0.2l0.2,0.2l0.2,0.1l0.2,0.1l0.2,0h32.5l0.2,0l0.2-0.1l0.2-0.1l0.2-0.2l0.2-0.2l0.1-0.2
		l0.1-0.3l0-0.3v-27l0-0.3l0.1-0.2l0.1-0.2l0.1-0.2l0.2-0.2l0.2-0.1l0.2-0.1l0.2,0h6l0.3,0l0.3-0.1l0.3-0.1l0.2-0.2l0.2-0.2l0.2-0.2
		l0.2-0.3l0.1-0.3l0.1-0.3l0-0.3V88L126.5,87.7z M76.9,109.1c-0.5,0-1-0.5-1-1.1c0-0.6,0.4-1.1,1-1.1s1,0.5,1,1.1
		C77.8,108.7,77.4,109.1,76.9,109.1z M76.9,101.1c-0.5,0-1-0.5-1-1.1c0-0.6,0.4-1.1,1-1.1s1,0.5,1,1.1
		C77.8,100.7,77.4,101.1,76.9,101.1z M76.9,93.1c-0.5,0-1-0.5-1-1.1c0-0.6,0.4-1.1,1-1.1s1,0.5,1,1.1C77.8,92.7,77.4,93.1,76.9,93.1
		z M84.6,137.5c-0.4,0-0.8-0.4-0.8-0.8s0.3-0.8,0.8-0.8s0.8,0.4,0.8,0.8S85.1,137.5,84.6,137.5z M84.6,64.3c-0.4,0-0.8-0.4-0.8-0.8
		c0-0.5,0.3-0.8,0.8-0.8s0.8,0.4,0.8,0.8C85.4,64,85.1,64.3,84.6,64.3z M91.5,137.3c-0.4,0-0.7-0.3-0.7-0.7s0.3-0.7,0.7-0.7
		c0.4,0,0.7,0.3,0.7,0.7S91.9,137.3,91.5,137.3z M91.5,125c-0.4,0-0.7-0.3-0.7-0.7c0-0.4,0.3-0.7,0.7-0.7c0.4,0,0.7,0.3,0.7,0.7
		C92.2,124.6,91.9,125,91.5,125z M91.5,76.6c-0.4,0-0.7-0.3-0.7-0.7c0-0.4,0.3-0.7,0.7-0.7c0.4,0,0.7,0.3,0.7,0.7
		C92.2,76.2,91.9,76.6,91.5,76.6z M91.5,64.2c-0.4,0-0.7-0.3-0.7-0.7c0-0.4,0.3-0.7,0.7-0.7c0.4,0,0.7,0.3,0.7,0.7
		C92.2,63.9,91.9,64.2,91.5,64.2z M108.4,137.3c-0.4,0-0.7-0.3-0.7-0.7c0-0.4,0.3-0.7,0.7-0.7c0.4,0,0.7,0.3,0.7,0.7
		C109.1,136.9,108.8,137.3,108.4,137.3z M108.4,124.9c-0.4,0-0.7-0.3-0.7-0.7c0-0.4,0.3-0.7,0.7-0.7c0.4,0,0.7,0.3,0.7,0.7
		C109.1,124.6,108.8,124.9,108.4,124.9z M108.4,76.5c-0.4,0-0.7-0.3-0.7-0.7c0-0.4,0.3-0.7,0.7-0.7c0.4,0,0.7,0.3,0.7,0.7
		C109.1,76.2,108.8,76.5,108.4,76.5z M108.4,64.1c-0.4,0-0.7-0.3-0.7-0.7s0.3-0.7,0.7-0.7c0.4,0,0.7,0.3,0.7,0.7
		S108.8,64.1,108.4,64.1z M115.4,137.5c-0.4,0-0.8-0.4-0.8-0.8s0.3-0.8,0.8-0.8c0.4,0,0.8,0.4,0.8,0.8S115.8,137.5,115.4,137.5z
		 M115.4,64.3c-0.4,0-0.8-0.4-0.8-0.8c0-0.5,0.3-0.8,0.8-0.8c0.4,0,0.8,0.4,0.8,0.8C116.1,64,115.8,64.3,115.4,64.3z M123.1,109.1
		c-0.5,0-1-0.5-1-1.1c0-0.6,0.4-1.1,1-1.1c0.5,0,1,0.5,1,1.1C124.1,108.7,123.7,109.1,123.1,109.1z M123.1,101.1c-0.5,0-1-0.5-1-1.1
		c0-0.6,0.4-1.1,1-1.1c0.5,0,1,0.5,1,1.1C124.1,100.7,123.7,101.1,123.1,101.1z M123.1,93.1c-0.5,0-1-0.5-1-1.1c0-0.6,0.4-1.1,1-1.1
		c0.5,0,1,0.5,1,1.1C124.1,92.7,123.7,93.1,123.1,93.1z"/>
</g>
</svg>
